/* XPM */
static const char *icon[]={
"20 20 376 2",
"bM c #021830",
"ak c #070700",
"cI c #07141a",
"b5 c #082338",
"cp c #090900",
"bS c #0a0b05",
"cB c #0c1c2b",
"ai c #0d0f02",
"bW c #0f0500",
"bf c #0f1104",
"aG c #101109",
"aj c #101205",
"dq c #131812",
"cl c #152b42",
"dh c #17262b",
"c7 c #183145",
"bt c #183348",
"aA c #192428",
"b1 c #1a0901",
"bN c #1a2831",
"cy c #1b190d",
"bb c #1b2423",
"c0 c #1b2628",
"dc c #1c1d0f",
"bu c #1f2a2c",
"aO c #1f476a",
"b6 c #203940",
"cX c #222013",
"be c #232115",
"bn c #23343e",
"dr c #241e12",
"cj c #24373e",
"dv c #262719",
"dI c #262c22",
"dK c #272b1d",
"bA c #294656",
"bD c #2e2818",
"da c #2e2a1e",
"dt c #2f3229",
"aN c #2f597f",
".8 c #303730",
"ca c #30424c",
".j c #313224",
"dz c #31342b",
"dJ c #322f20",
"#K c #32352c",
".D c #333426",
"#4 c #33342e",
"bC c #333527",
"b. c #33698f",
"ck c #344c64",
"#g c #353327",
"d# c #35372c",
"#A c #35393c",
"a2 c #355667",
"c6 c #364447",
"cO c #382914",
"dH c #393b2e",
"br c #396282",
"aB c #3a3924",
"#X c #3a3e3d",
"bB c #3b4f56",
".C c #3c341d",
"a7 c #3c535b",
"#q c #3e4138",
"#3 c #3e413a",
"c# c #3e4d52",
".i c #3f3422",
"db c #3f372a",
"b9 c #3f3f33",
"bT c #3f5057",
".k c #403521",
"dE c #403926",
"bG c #403b27",
"dB c #404133",
"cz c #405260",
"#y c #413a34",
"#i c #41423c",
"di c #414340",
"b4 c #425e73",
"bg c #435555",
"bV c #444638",
"dA c #444b44",
"af c #445658",
"aI c #45738d",
"b3 c #465e68",
"a6 c #466f85",
"al c #47493e",
"dC c #483f30",
"bQ c #484639",
"dd c #48493b",
"aY c #484a3d",
"dF c #494333",
"dx c #49493d",
"dw c #494a3c",
".1 c #494b3e",
"bK c #49637c",
"dG c #4a4333",
"bc c #4b4839",
"bx c #4b493d",
"bv c #4b4c3c",
"#o c #4b4d3f",
".E c #4c412b",
"b8 c #4c483c",
"bw c #4c4a3d",
"#n c #4c4e40",
"ci c #4d463c",
"bd c #4d493d",
"bP c #4d4b3c",
"aE c #4d4b3e",
"#x c #4e453e",
"aW c #4e4a3e",
"aV c #4e4b3c",
"cE c #4e4c3d",
"cD c #4e4c3f",
"ds c #4f3c1e",
"aC c #4f493d",
"cU c #4f4b3f",
"bO c #4f4c3d",
"aD c #4f4d40",
"co c #504a3c",
"cn c #504a3e",
"b7 c #504c40",
"cV c #504e41",
".Z c #514f42",
"#p c #515145",
"cR c #516171",
"cA c #516178",
"bU c #516269",
".X c #52402a",
"a3 c #527794",
"bF c #53594b",
"bj c #536059",
"cZ c #536772",
"cQ c #536b83",
"c. c #545448",
"#h c #54554f",
"ba c #567287",
"dD c #574f3c",
"bk c #586168",
"cH c #5b737f",
"aU c #5c5f4e",
".r c #5e4e34",
"cY c #5e6b71",
"cG c #606760",
"aK c #608eb0",
".G c #61645b",
"bp c #62564a",
"#z c #645c51",
".F c #646150",
"cr c #657f8c",
"bL c #65839f",
"do c #666668",
"#0 c #685036",
"aS c #6892b8",
"#G c #694f36",
".4 c #695139",
"bJ c #696961",
".L c #6a4e36",
"#Z c #6a5236",
"du c #6a6c5e",
"#m c #6b533b",
"bE c #6c6f64",
"#F c #6d553b",
"aZ c #6d7e85",
"#B c #6e7879",
"ay c #6eabda",
".Y c #6f5b40",
".q c #6f5d45",
".K c #6f5e42",
"az c #6f99bf",
"aR c #6fa9d9",
"aQ c #6facd8",
"ac c #70aadc",
"ax c #70ace0",
"#l c #715b43",
"ab c #71a6d8",
"aw c #71a9dc",
"#U c #71abd3",
"a# c #71abd9",
"#D c #726449",
"aP c #72a3cb",
"#T c #72a8ce",
"aM c #72a8d6",
"ad c #72a9df",
"av c #73a6d5",
"#Y c #74644a",
".0 c #74776e",
"#P c #748694",
"#9 c #74a6d7",
"ae c #74a8cf",
"as c #74a8d7",
"#8 c #74a9d3",
"a. c #74aad9",
"bq c #758791",
"at c #75aadc",
"aa c #75abda",
"#V c #75acd5",
"#S c #76aad2",
".l c #776a59",
"#E c #786346",
"a1 c #78a1bf",
"#f c #795e40",
".3 c #79654a",
"#k c #79684c",
"dn c #796a53",
"b# c #79a5c8",
"ar c #79a7d8",
"ap c #79aad2",
"#R c #79aad5",
".p c #7a6c52",
"a9 c #7aa8ca",
"a5 c #7aaad2",
"aq c #7aabd4",
"au c #7aacdd",
"ao c #7ba0b3",
".J c #7c6b4f",
"bs c #7ca5c1",
"c8 c #7d8882",
"aJ c #7dabcf",
"aL c #7eaccd",
"a4 c #7fa9d3",
"#Q c #80acd3",
"b0 c #82745a",
".e c #828268",
"#W c #82abcb",
".2 c #837457",
"#j c #83755a",
"cq c #838c89",
".m c #847868",
".7 c #848f8b",
"bm c #85a1b6",
"a0 c #85b1cc",
"dg c #868370",
"#7 c #86aac2",
"ag c #87775d",
".I c #87795e",
".f c #878066",
".6 c #87897b",
"b2 c #888479",
"by c #88887c",
"dy c #888d87",
"bh c #88adc7",
"ah c #897252",
"c9 c #898667",
"cF c #898a7c",
".H c #898d7c",
"#e c #8a6845",
".W c #8a704d",
".5 c #8a8d7c",
"aT c #8aa5b8",
"#w c #8b7665",
"a8 c #8ca8b6",
".n c #8e8272",
"#C c #8e8a7e",
"cW c #8e8f81",
"aX c #8f8f83",
".g c #907355",
"bz c #909790",
"bl c #90a8c2",
"#d c #91714b",
".h c #917253",
"aF c #919386",
"bi c #92afc1",
"#v c #94795e",
".B c #95754f",
"bR c #959589",
".A c #967856",
"de c #969078",
"bo c #969488",
"dL c #96988b",
"#t c #97a1a2",
"#c c #98765a",
".V c #987852",
"#b c #98795c",
"am c #999c93",
"#N c #99a8af",
"bH c #9a8f7b",
".U c #9b7a59",
".o c #9c9078",
".z c #9d9580",
".y c #9ea593",
"c5 c #9f8e7e",
"dm c #9f8f75",
"cL c #a19483",
"d. c #a49d80",
"#2 c #a5a599",
"cP c #a5a8ad",
".S c #a5a998",
"bY c #a8a288",
"#I c #a8aa9d",
".T c #a9a693",
"#1 c #a9ab9e",
"cu c #aa9f8d",
"## c #aaaaa2",
"#H c #abada0",
"bI c #ada18b",
"#J c #adafa2",
"#. c #b2a67c",
"cx c #b4a892",
"cc c #b4aea0",
"#s c #b6b9a6",
"#O c #b6bdad",
"#6 c #b7cbd4",
"df c #b8ac7c",
"#a c #bab5a2",
"#u c #bab9a7",
"bX c #beb2a2",
"Qt c #bebdb8",
".w c #bec0ab",
"dj c #c1c3b8",
".O c #c1d2d9",
"bZ c #c4b99b",
"cb c #c4cec6",
"cm c #c8b89f",
".a c #cadbe3",
"cJ c #cccdc5",
".u c #ccdce9",
"cs c #d0cdbc",
"c1 c #d0d1c9",
"dk c #d0d2bc",
"c2 c #d1d0b4",
"dM c #d1d1c7",
"dR c #d2d2c6",
"dO c #d3d3c7",
"dQ c #d3d5c8",
"cd c #d4ccb9",
"dP c #d4d6c8",
"c4 c #d5c7ad",
"dT c #d5d5c9",
"dS c #d5d5cb",
"cK c #d6cebb",
"dp c #d6d3ca",
"dN c #d6d6ca",
"dX c #d6d8cb",
"cM c #d7c8b3",
"dY c #d7d8c8",
"dW c #d7d8ca",
"dV c #d8d9cb",
"ct c #d9cdb7",
"cT c #d9d3b9",
"dU c #dadccf",
"dZ c #daddcc",
"d1 c #dbdcce",
"d0 c #dbddd0",
"ce c #dcd1bf",
"cN c #ddceb9",
"cf c #ddcfb5",
"ch c #decfba",
"c3 c #ded2b8",
"cg c #e0d0b7",
"cv c #e0d1ba",
"cw c #e0d1bc",
"cS c #e0e3d8",
"aH c #e0feff",
"#L c #e1e2dd",
"dl c #e3d5bb",
"cC c #e5e3d6",
"an c #eafdfb",
".R c #eedf9c",
".b c #eef9fd",
".v c #effdfe",
".P c #f0fcfa",
".x c #f1e291",
".Q c #f2f5ec",
"#5 c #f2fff8",
".d c #f3f3b5",
"#M c #f3fcf7",
".c c #f4f7cc",
".9 c #f5fff4",
".s c #f8fad5",
".# c #f8fdf9",
".t c #f8fff3",
".M c #fafbd9",
".N c #fafdf2",
"#r c #fbfef7",
"Qt.#.a.b.c.d.e.f.g.h.i.j.k.l.m.n.o.p.q.r",
".s.t.u.v.w.x.y.z.A.B.C.D.E.F.G.H.I.J.K.L",
".M.N.O.P.Q.R.S.T.U.V.W.X.Y.Z.0.1.2.3.Y.4",
".5.6.7.8.9#.###a#b#c#d#e#f#g#h#i#j#k#l#m",
"#n#o#p#q#r#s#t#u#v#w#x#y#z#A#B#C#D#E#F#G",
"#H#I#J#K#L#M#N#O#P#Q#R#S#T#U#V#W#X#Y#Z#0",
"#1#1#2#3#4#5#6#7#8#9a.a#aaabacadaeafagah",
"aiajakalamanaoapaqarasatauavawaxayazaAaB",
"aCaDaEaFaGaHaIaJaKaLaqaMaNaOaPaQaRaSaTaU",
"aVaWaDaXaYaZa0a1a2a3a4a5a6a7a8a9b.b#babb",
"bcbdaWbebfbgbhbibjbkblbmbnbobpbqbrbsbtbu",
"bvbvbwbxbybzbAbBbCbDbEbFbGbHbIbJbKbLbMbN",
"bObPbQaEbRbSbTbUbVbWbXbYbZb0b1b2b3b4b5b6",
"b7b8bdbdb9c.c#cacbcccdcecfcgchcicjckclcm",
"aCbdcncob9cpcqcraAcsctcucvcwcxcyczcAcBcC",
"aWaWcDcEaDcFcGcHcIcJcKcLcMcNcOcPcQcRcScT",
"aDaWcUaDcVcWcXcYcZc0c1c2c3c4c5c6c7c8c9d.",
"d#dadbdcdddedfdgdhdidjdkdldmdndodpdqdrds",
"dtdudvdddwdxalaldydzdAdBdCdDdEdFdGdHdIdJ",
"dKdLdMdNdOdPdQdRdSdTdUdUdVdWdXdYdZd0dUd1"};
